<?xml version="1.0" encoding="iso-8859-1"?>
<!-- Generator: Adobe Illustrator 19.0.0, SVG Export Plug-In . SVG Version: 6.00 Build 0)  -->
<svg version="1.1" id="Capa_1" xmlns="http://www.w3.org/2000/svg" xmlns:xlink="http://www.w3.org/1999/xlink" x="0px" y="0px"
	 viewBox="0 0 512 512" style="enable-background:new 0 0 512 512;" xml:space="preserve">
<g>
	<path style="fill:#2EA2EF;" d="M168.254,427.375l13.093,22.678c1.38,2.391,0.561,5.449-1.83,6.83l-13.577,7.839l-35.907-0.16
		l17.814-31.176l13.577-7.839C163.816,424.165,166.874,424.983,168.254,427.375z"/>
	<path style="fill:#2EA2EF;" d="M83.232,321.465l18.828,138.354l16.92-115.637c0.163-1.113-0.055-2.25-0.617-3.224l-14.724-25.503
		c-1.38-2.391-4.438-3.21-6.83-1.83L83.232,321.465z"/>
</g>
<path style="fill:#54BBFF;" d="M147.848,433.383l18.092,31.337l-80.728,46.608c-2.391,1.38-5.449,0.561-6.83-1.83l-14.724-25.503
	c-0.562-0.975-0.781-2.11-0.617-3.224l16.92-115.637L20.597,399.41c-2.391,1.38-5.449,0.561-6.83-1.83L0.673,374.903
	c-1.38-2.391-0.561-5.449,1.83-6.83l80.728-46.608l18.092,31.337l0.735,107.017L147.848,433.383z"/>
<g>
	<path style="fill:#2EA2EF;" d="M322.445,306.616l11.085,41.371c0.411,1.536-0.5,3.116-2.037,3.529l-27.176,7.281l-36.247-15.441
		l23.671-31.495l27.176-7.281C320.454,304.168,322.034,305.08,322.445,306.616z"/>
	<path style="fill:#2EA2EF;" d="M248.126,149.085l-19.058,179.57l61.188-139.736c0.263-0.599,0.313-1.27,0.144-1.901L278.83,143.84
		c-0.411-1.536-1.991-2.449-3.529-2.037L248.126,149.085z"/>
</g>
<path style="fill:#54BBFF;" d="M291.741,311.862l12.576,46.935l-120.048,32.167c-1.536,0.411-3.116-0.5-3.529-2.037l-11.569-43.177
	c-0.17-0.632-0.119-1.302,0.144-1.901l61.188-139.736l-89.85,24.075c-1.536,0.411-3.116-0.5-3.529-2.037l-11.085-41.371
	c-0.411-1.536,0.5-3.116,2.037-3.529l120.05-32.167l12.576,46.936l-31.634,132.635L291.741,311.862z"/>
<g>
	<path style="fill:#2EA2EF;" d="M511.997,214.093v49.456c0,2.902-2.352,5.254-5.254,5.254h-25.762l-31.016-29.982l31.016-29.982
		h25.762C509.645,208.839,511.997,211.191,511.997,214.093z"/>
	<path style="fill:#2EA2EF;" d="M480.981,0l-88.622,208.839L510.838,61.406c0.75-0.934,1.159-2.095,1.159-3.292V5.254
		c0-2.902-2.352-5.254-5.254-5.254H480.981z"/>
</g>
<path style="fill:#54BBFF;" d="M480.981,208.839v59.964H320.818c-2.902,0-5.254-2.352-5.254-5.254v-52.861
	c0-1.196,0.408-2.357,1.157-3.29L435.099,59.964h-114.28c-2.902,0-5.254-2.352-5.254-5.254V5.254c0-2.902,2.352-5.254,5.254-5.254
	h160.163v59.964l-88.622,148.875H480.981z"/>
<g>
</g>
<g>
</g>
<g>
</g>
<g>
</g>
<g>
</g>
<g>
</g>
<g>
</g>
<g>
</g>
<g>
</g>
<g>
</g>
<g>
</g>
<g>
</g>
<g>
</g>
<g>
</g>
<g>
</g>
</svg>
